Coordinates
version=1
nRows=11
nColumns=36
inDegrees=yes

Units are S.I. units (second, meters, Newtons, ...)
If the header above contains a line with 'inDegrees', this indicates whether rotational values are in degrees (yes) or radians (no).

endheader
time	pelvis_tilt	pelvis_list	pelvis_rotation	pelvis_tx	pelvis_ty	pelvis_tz	hip_flexion_r	hip_adduction_r	hip_rotation_r	knee_angle_r	knee_angle_r_beta	ankle_angle_r	subtalar_angle_r	mtp_angle_r	hip_flexion_l	hip_adduction_l	hip_rotation_l	knee_angle_l	knee_angle_l_beta	ankle_angle_l	subtalar_angle_l	mtp_angle_l	lumbar_extension	lumbar_bending	lumbar_rotation	arm_flex_r	arm_add_r	arm_rot_r	elbow_flex_r	pro_sup_r	arm_flex_l	arm_add_l	arm_rot_l	elbow_flex_l	pro_sup_l
      0.00000000	      1.04455889	      4.64452157	     92.34152718	     -0.21132856	      0.92919822	      1.10739963	     22.69963202	      1.15096669	     -9.31663464	     22.68204602	      0.39587638	     -4.82037024	     -3.72762861	     -7.52971704	    -16.84335049	     -1.88079141	    -11.02516293	     30.09399618	      0.52523932	     -0.85976713	      0.96493857	     -7.52971704	    -15.47464983	      2.53093272	     -5.35915100	     -2.15532317	     -5.91488419	    -39.76903781	     39.66877815	    109.84390362	     20.70663161	     -7.24367525	    -23.13768259	     39.31479576	     88.48767717
      0.01000000	      1.74273008	      5.24828500	     92.26862212	     -0.20983319	      0.93072063	      1.09252017	     21.54409385	      2.03015540	     -9.52918208	     23.54130024	      0.41087320	     -4.05705409	     -4.91019257	     -7.52075144	    -16.88291644	     -3.06656656	    -11.10217634	     32.39595999	      0.56541617	     -4.86831172	     -0.42589345	     -7.52075144	    -15.89477710	      3.31591388	     -5.07260208	     -1.98426437	     -6.03465534	    -39.96029482	     38.95118505	    110.38817845	     20.19945602	     -6.99726190	    -23.56129143	     39.49915429	     86.12237162
      0.02000000	      2.50213252	      5.74786856	     92.11943917	     -0.20789318	      0.93216662	      1.07780984	     20.53602005	      3.10326320	     -9.26081622	     24.44578788	      0.42665949	     -3.36381304	     -5.66920432	     -7.51555252	    -16.52138552	     -4.40316507	    -11.40319275	     35.03543272	      0.61148366	     -9.62603504	     -1.67284258	     -7.51555252	    -16.17107298	      4.06675083	     -4.78420351	     -1.69205602	     -6.06913077	    -40.16596350	     38.10632087	    110.27651022	     19.62456356	     -6.78329389	    -24.32024910	     39.70135589	     85.04151827
      0.03000000	      3.27111281	      6.13252551	     92.06778134	     -0.20617254	      0.93356619	      1.06357418	     19.56889843	      4.20407670	     -8.82267971	     25.18822718	      0.43961750	     -2.20339089	     -5.84617836	     -7.50684580	    -15.76614095	     -5.82034926	    -11.49649697	     37.90646708	      0.66159266	    -14.50259565	     -2.77274849	     -7.50684580	    -16.34975889	      4.82584867	     -4.48598809	     -1.49541190	     -6.13446247	    -40.23011988	     37.45738892	    110.71095412	     19.22178435	     -6.48274919	    -25.72860068	     39.61933968	     89.47648070
      0.04000000	      3.82948241	      6.34333171	     92.09441962	     -0.20511389	      0.93483498	      1.04963974	     18.77392398	      4.97490054	     -8.49961423	     25.91548279	      0.45231050	     -1.11986133	     -6.75390776	     -7.50546472	    -14.63431757	     -6.84967340	    -10.97397649	     40.80548048	      0.71218999	    -18.33539142	     -3.64684945	     -7.50546472	    -16.40792544	      5.45666209	     -4.26776760	     -1.28377503	     -6.17597599	    -40.48082935	     36.98854368	    111.19527652	     18.70373124	     -6.24406152	    -26.13386370	     39.63093957	     87.90825705
      0.05000000	      4.06386952	      6.51051050	     92.27690225	     -0.20520119	      0.93611690	      1.03643587	     17.98475790	      5.38702819	     -7.90417230	     26.53719967	      0.46316151	      0.09595983	     -7.39697186	     -7.50470684	    -13.22217120	     -7.28409448	     -9.85553925	     43.81601415	      0.76473371	    -21.70179228	     -4.96485216	     -7.50470684	    -16.48319319	      5.80915251	     -4.22135553	     -1.15384788	     -6.38391117	    -40.05911277	     36.73605398	    110.38587869	     18.22355289	     -5.96370328	    -26.44177743	     39.67581071	     85.91667043
      0.06000000	      4.35210959	      6.84377846	     92.24134444	     -0.20482826	      0.93785185	      1.02331463	     16.84815359	      5.95514695	     -7.14722638	     26.82224180	      0.46813643	      1.39608178	     -7.66187112	     -7.50461637	    -12.07222576	     -7.84073761	     -9.31222839	     46.61726749	      0.81362481	    -24.48535647	     -5.68949663	     -7.50461637	    -16.81657796	      6.12461331	     -3.77980836	     -1.04172412	     -6.55308692	    -39.88559585	     36.57787280	    110.14078767	     17.91889771	     -5.73936603	    -26.51428267	     39.56391919	     85.77466022
      0.07000000	      4.78702683	      6.67310041	     92.65957884	     -0.20522581	      0.93928709	      1.01034182	     16.06825363	      6.53890755	     -6.82159337	     26.61398197	      0.46450161	      1.87888540	     -8.62435351	     -7.50449328	    -10.01152941	     -8.51651854	     -8.25764156	     49.71192107	      0.86763670	    -28.20414687	     -9.82896351	     -7.50449328	    -16.45759405	      6.76243500	     -3.94153254	     -0.94855265	     -6.64596272	    -39.71238799	     36.58639809	    110.49520606	     17.38186230	     -5.43982309	    -27.07205682	     39.20719152	     85.96620833
      0.08000000	      5.05100374	      6.68391980	     92.92735573	     -0.20540881	      0.94137268	      0.99787804	     14.95736080	      6.96771633	     -6.53349883	     26.14256971	      0.45627392	      2.49100286	     -8.94598937	     -7.50443611	     -8.16456748	     -9.02150057	     -7.48058357	     52.52134889	      0.91667047	    -31.69369755	    -12.98132906	     -7.50443611	    -16.44762447	      7.14260192	     -3.85097882	     -0.69407876	     -6.71391042	    -39.68958720	     36.48803028	    111.06159325	     17.06834343	     -5.13238022	    -27.62816893	     38.72935674	     86.26804187
      0.09000000	      5.17894162	      6.67746272	     93.20533601	     -0.20549559	      0.94373254	      0.98570468	     13.78873765	      7.19861308	     -6.49738036	     25.49128701	      0.44490689	      3.05929621	     -8.80517472	     -7.50436742	     -6.28103594	     -9.37571234	     -6.77493593	     55.09513459	      0.96159150	    -33.93539239	    -15.80995509	     -7.50436742	    -16.46551270	      7.33122740	     -3.76524578	     -0.40761304	     -6.67032555	    -39.71577880	     36.42479251	    111.44038393	     16.78699357	     -4.90123502	    -28.12300195	     38.29176396	     86.54907880
      0.10000000	      5.14572514	      6.63372910	     93.47380158	     -0.20564311	      0.94626067	      0.97376036	     12.55452420	      7.26497714	     -6.46981756	     24.61660050	      0.42964073	      3.61261358	     -8.61322027	     -7.50430097	     -4.37393066	     -9.46637432	     -6.15301582	     57.37442224	      1.00137257	    -34.61291777	    -18.60716662	     -7.50430097	    -16.46282371	      7.34182179	     -3.68085507	     -0.10458773	     -6.64509764	    -39.62617279	     36.39191962	    111.66474536	     16.52627679	     -4.73323856	    -28.48402752	     37.69684749	     86.72936193
